{
	"asset":{
		"generator":"Khronos glTF Blender I/O v4.2.57",
		"version":"2.0"
	},
	"scene":0,
	"scenes":[
		{
			"name":"Scene",
			"nodes":[
				0,
				1,
				2,
				3
			]
		}
	],
	"nodes":[
		{
			"mesh":0,
			"name":"Origin"
		},
		{
			"mesh":1,
			"name":"ArrowX",
			"rotation":[
				0,
				0,
				-0.7071068286895752,
				0.7071068286895752
			]
		},
		{
			"mesh":2,
			"name":"ArrowY",
			"rotation":[
				-0.7071068286895752,
				0,
				0,
				0.7071068286895752
			]
		},
		{
			"mesh":3,
			"name":"ArrowZ"
		}
	],
	"materials":[
		{
			"doubleSided":true,
			"name":"YellowMaterial",
			"pbrMetallicRoughness":{
				"baseColorFactor":[
					1,
					1,
					0,
					1
				],
				"metallicFactor":0.5,
				"roughnessFactor":0.5
			}
		},
		{
			"doubleSided":true,
			"name":"RedMaterial",
			"pbrMetallicRoughness":{
				"baseColorFactor":[
					1,
					0,
					0,
					1
				],
				"metallicFactor":0.5,
				"roughnessFactor":0.5
			}
		},
		{
			"doubleSided":true,
			"name":"GreenMaterial",
			"pbrMetallicRoughness":{
				"baseColorFactor":[
					0,
					1,
					0,
					1
				],
				"metallicFactor":0.5,
				"roughnessFactor":0.5
			}
		},
		{
			"doubleSided":true,
			"name":"BlueMaterial",
			"pbrMetallicRoughness":{
				"baseColorFactor":[
					0,
					0,
					1,
					1
				],
				"metallicFactor":0.5,
				"roughnessFactor":0.5
			}
		}
	],
	"meshes":[
		{
			"name":"Origin",
			"primitives":[
				{
					"attributes":{
						"POSITION":0,
						"NORMAL":1,
						"TEXCOORD_0":2
					},
					"indices":3,
					"material":0
				}
			]
		},
		{
			"name":"ArrowX",
			"primitives":[
				{
					"attributes":{
						"POSITION":4,
						"NORMAL":5,
						"TEXCOORD_0":6
					},
					"indices":7,
					"material":1
				}
			]
		},
		{
			"name":"ArrowY",
			"primitives":[
				{
					"attributes":{
						"POSITION":8,
						"NORMAL":9,
						"TEXCOORD_0":10
					},
					"indices":7,
					"material":2
				}
			]
		},
		{
			"name":"ArrowZ",
			"primitives":[
				{
					"attributes":{
						"POSITION":11,
						"NORMAL":12,
						"TEXCOORD_0":13
					},
					"indices":7,
					"material":3
				}
			]
		}
	],
	"accessors":[
		{
			"bufferView":0,
			"componentType":5126,
			"count":15360,
			"max":[
				0.012500000186264515,
				0.012500000186264515,
				0.01250000111758709
			],
			"min":[
				-0.01250000111758709,
				-0.012500000186264515,
				-0.01250000111758709
			],
			"type":"VEC3"
		},
		{
			"bufferView":1,
			"componentType":5126,
			"count":15360,
			"type":"VEC3"
		},
		{
			"bufferView":2,
			"componentType":5126,
			"count":15360,
			"type":"VEC2"
		},
		{
			"bufferView":3,
			"componentType":5123,
			"count":15360,
			"type":"SCALAR"
		},
		{
			"bufferView":4,
			"componentType":5126,
			"count":346,
			"max":[
				0.05000000074505806,
				1,
				0.05000000074505806
			],
			"min":[
				-0.05000000074505806,
				0,
				-0.05000000074505806
			],
			"type":"VEC3"
		},
		{
			"bufferView":5,
			"componentType":5126,
			"count":346,
			"type":"VEC3"
		},
		{
			"bufferView":6,
			"componentType":5126,
			"count":346,
			"type":"VEC2"
		},
		{
			"bufferView":7,
			"componentType":5123,
			"count":570,
			"type":"SCALAR"
		},
		{
			"bufferView":8,
			"componentType":5126,
			"count":346,
			"max":[
				0.05000000074505806,
				1,
				0.05000000074505806
			],
			"min":[
				-0.05000000074505806,
				0,
				-0.05000000074505806
			],
			"type":"VEC3"
		},
		{
			"bufferView":9,
			"componentType":5126,
			"count":346,
			"type":"VEC3"
		},
		{
			"bufferView":10,
			"componentType":5126,
			"count":346,
			"type":"VEC2"
		},
		{
			"bufferView":11,
			"componentType":5126,
			"count":346,
			"max":[
				0.05000000074505806,
				1,
				0.05000000074505806
			],
			"min":[
				-0.05000000074505806,
				0,
				-0.05000000074505806
			],
			"type":"VEC3"
		},
		{
			"bufferView":12,
			"componentType":5126,
			"count":346,
			"type":"VEC3"
		},
		{
			"bufferView":13,
			"componentType":5126,
			"count":346,
			"type":"VEC2"
		}
	],
	"bufferViews":[
		{
			"buffer":0,
			"byteLength":184320,
			"byteOffset":0,
			"target":34962
		},
		{
			"buffer":0,
			"byteLength":184320,
			"byteOffset":184320,
			"target":34962
		},
		{
			"buffer":0,
			"byteLength":122880,
			"byteOffset":368640,
			"target":34962
		},
		{
			"buffer":0,
			"byteLength":30720,
			"byteOffset":491520,
			"target":34963
		},
		{
			"buffer":0,
			"byteLength":4152,
			"byteOffset":522240,
			"target":34962
		},
		{
			"buffer":0,
			"byteLength":4152,
			"byteOffset":526392,
			"target":34962
		},
		{
			"buffer":0,
			"byteLength":2768,
			"byteOffset":530544,
			"target":34962
		},
		{
			"buffer":0,
			"byteLength":1140,
			"byteOffset":533312,
			"target":34963
		},
		{
			"buffer":0,
			"byteLength":4152,
			"byteOffset":534452,
			"target":34962
		},
		{
			"buffer":0,
			"byteLength":4152,
			"byteOffset":538604,
			"target":34962
		},
		{
			"buffer":0,
			"byteLength":2768,
			"byteOffset":542756,
			"target":34962
		},
		{
			"buffer":0,
			"byteLength":4152,
			"byteOffset":545524,
			"target":34962
		},
		{
			"buffer":0,
			"byteLength":4152,
			"byteOffset":549676,
			"target":34962
		},
		{
			"buffer":0,
			"byteLength":2768,
			"byteOffset":553828,
			"target":34962
		}
	],
	"buffers":[
		{
			"byteLength":556596,
			"uri":"axis_helper.bin"
		}
	]
}
